<?xml version="1.0" encoding="UTF-8"?>
<svg id="uuid-8bc1769f-0853-435a-a3e8-f4fbd22a5c3c" data-name="图层 1" xmlns="http://www.w3.org/2000/svg" viewBox="0 0 993.93 150.86">
  <defs>
    <style>
      .uuid-e7f6ecf5-149a-405c-bd0f-3f7ace0d3e96 {
        fill: #d5d4df;
      }
    </style>
  </defs>
  <path class="uuid-e7f6ecf5-149a-405c-bd0f-3f7ace0d3e96" d="M121.59,119.72c-19.05-9.85-28.65-28.8-31.13-61.43l.28-4.43c2.61-.41,4.37-1.99,5.01-4.56l.36-1.45-21.63-5.46c.44-1.1.89-2.27,1.37-3.61h21.21c-.54,8.84-1.7,20.18-2.88,28.2l-.12.78,2.65,2.45,1.02-1.05c6.77-6.97,14.79-18.11,19.45-25.84,2.28-.21,3.9-.78,5.18-2.56l.68-.95-16.83-20.09-9.52,11.75h-18.48c1.56-5.02,3.03-10.7,4.65-18,2.66-.5,4.49-2.23,4.96-4.77l.25-1.36L61.33.06l-.09,1.86c-.44,8.96-1.35,18.26-2.62,27.45l-14.76-16.06-8.84,11.73H1.76l1.9,7.3h31.58c-.9,9.4-2.26,19.25-4.07,29.32-6.57-5.86-14.16-11.38-22.6-16.46l-.85-.51-3.49,2.52.85,1.21c5.64,8.09,13.92,20.54,21.5,34.17-6.42,24.74-15.11,44.76-25.84,59.52l-.75,1.03,3.21,3.24,1.05-.84c13.51-10.8,24.21-24.75,32.64-42.58,2.65,5.77,4.93,11.64,6.63,17.15l.13.41.32.28c4.66,4.04,9.38,4.62,12.62,1.56.12-.11.24-.23.35-.35-4.31,7.96-10.03,15.5-17.63,22.82l-.81.78,2.32,4.45,1.32-.66c29.4-14.75,40.53-34.89,45.21-60.2,2.73,30.27,8.38,49.22,17.52,59.11l2.29,2.47.31-3.35c1.18-12.84,5.68-20.35,13.76-22.95l.97-.31.25-3.99-.87-.45ZM47.54,79.51l2.91,2.29.94-.98c7.33-7.63,13.52-16.88,18.8-28.13-.51,25.03-2.25,45.58-10.51,63.83,1.95-8.41-1.53-22.4-12.14-37.02ZM47.52,78.22l-.3.87c-.28-.38-.56-.76-.85-1.14,3.88-13.03,6.79-27.19,8.65-42.14,1.1-.22,2.02-.51,2.79-.96-2.48,15.86-6.05,31.11-10.28,43.37Z"/>
  <path class="uuid-e7f6ecf5-149a-405c-bd0f-3f7ace0d3e96" d="M141.3,38.59l.08.52.39.35c2.59,2.36,5.38,3.58,8.03,3.58,1.37,0,2.71-.32,3.96-.98,4.39-2.29,6.79-8.06,5.96-14.36-1.46-11.08-11.76-19.81-27.56-23.34l-.69-.15-2.59,2,.66,1.14c5.87,10.15,10.27,21.83,11.75,31.24Z"/>
  <path class="uuid-e7f6ecf5-149a-405c-bd0f-3f7ace0d3e96" d="M207.41,123.54c-1.34,0-2.64,0-3.91-.02,5.4-1.44,8.64-4.69,8.64-6.61v-31.75c2.22.96,3.22,2.44,4.06,4.52,1.16,3.02,1.42,8.57,1.52,13.61l.03,1.64,1.63-.18c16.16-1.74,19.11-9.31,19.11-23.58V31.2c2.09-.72,3.79-1.99,4.75-3.57l.63-1.04-17.3-16.28-7.63,10.75h-7.85l-5.4-2.46c.79-.52,1.25-1.26,1.51-1.98l.38-1.04L186.94.08l-.84,1.48c-2.21,3.88-5.99,9.85-9.78,15.43l-11.05-2.99v62.71c0,2.85-.32,4.07-3.95,6.59l-.96.67,9.89,26.32,1.57-1.02c1.64-1.07,4.62-3.68,6.37-9.14,6.93-8.98,12.43-17.39,15.29-21.94v45c-18.71-1.08-28.37-4.77-35.4-12.81v-43.53c3.04-.81,5.04-2.06,6.22-3.9l.66-1.03-18.88-18.6-8.38,13.79h-13.62l1.27,7.3h13.68v49.22c-1.56.99-3.18,2.04-4.8,3.09-3.7,2.4-7.52,4.88-10.73,6.71l-1.24.71,12.98,25.5,1.41-.97c1.52-1.04,2.32-2.67,2.28-4.63,2.33-5.22,5.18-11.02,7.71-16.15,2.01-4.09,3.75-7.63,4.81-10.02.56-1.05.93-1.44,1.1-1.58.17.14.53.54,1.05,1.59,9.16,18.45,19.5,28.45,47.83,28.45h33.18l.13-1.36c.9-9.49,4.92-16.24,10.76-18.04l1.06-.33v-4.57l-1.62.13c-12.1.98-22.98,1.38-37.54,1.38ZM183.93,75.68V26.07c3.35-1.19,6.64-2.43,9.55-3.59v49.24l-.69.28c-2.93,1.21-5.94,2.44-8.87,3.68ZM219.46,79.01c0,.83-.11,1.06-.09,1.06h0s-.13.05-.4.05c-1.23,0-4.93-.24-6.83-.38V28.35h7.32v50.66Z"/>
  <path class="uuid-e7f6ecf5-149a-405c-bd0f-3f7ace0d3e96" d="M322.87,80.51h41.52c2.71,0,4.56-1.32,5.07-3.63l.17-.79-.56-.58c-6.67-6.86-17.72-16.99-17.84-17.09l-1.3-1.19-10.47,15.99h-15.4,0c8.53-5.58,17.46-14.05,24.62-23.34,2.95.04,5.14-1.42,5.95-4.01l.39-1.24-19.79-9.52h24.93c2.8,0,4.75-1.43,5.09-3.74l.11-.73-.52-.53c-6.54-6.7-17.35-16.68-17.46-16.78l-1.31-1.2-10.22,15.69h-16.45V10.71c2.83-.8,4.26-2.48,4.59-5.32l.17-1.48-26.15-3.14v27.04h-43.64l1.69,7.3h12.56l-.77.47.42,1.15c4.11,11.31,6.29,21.58,6.5,30.51v.55s.38.41.38.41c3.86,4.37,8.46,5.93,12.62,4.28,4.66-1.85,7.66-7.3,7.45-13.57-.33-10.07-8.27-18.83-21.42-23.81h24.21v38.12h-48.73l1.69,7.3h36.72c-8.35,22.86-22.9,44.11-39.2,57.16l-1.01.81,2.34,3.97,1.23-.56c19.35-8.83,35.12-21.02,46.97-36.27v43.92h4.98c7.24,0,16.41-5.69,16.41-9.17v-49.94c7.28,22.64,18.48,37.89,34.77,47.55l1.85,1.1.39-2.11c1.83-9.9,6.6-16.92,12.75-18.78l.92-.28.56-4.11-1.29-.33c-19.86-5.16-37.04-17.38-46.5-32.95ZM320.59,70.4l-.33.96,2.15,1.86h-3.01v-38.12h10.21c-2.73,13.36-6.26,27.16-9.03,35.3Z"/>
  <path class="uuid-e7f6ecf5-149a-405c-bd0f-3f7ace0d3e96" d="M469.41,122.89c0,1.23-.16,1.26-1.11,1.26-2.89,0-16.77-1.06-16.91-1.07l-1.61-.12v4.81l1.17.26c6.37,1.43,8.82,3.45,10.88,6.42,1.94,2.95,2.65,7.8,3.11,14.17l.11,1.54,1.54-.16c19.31-2.04,22.84-10.21,22.84-25.58V11.75c2.82-.89,4.32-2.74,4.47-5.53l.08-1.41-24.58-2.81v120.89Z"/>
  <path class="uuid-e7f6ecf5-149a-405c-bd0f-3f7ace0d3e96" d="M463.83,107.7V22.51c2.75-.81,4.14-2.48,4.46-5.31l.17-1.5-23.79-2.65v3.37c-5.62-6.35-13.99-14.92-14.08-15.02l-1.38-1.41-8.89,15.22h-45.52l1.69,7.3h18.85c-2.73,9.08-9.31,22.28-13.82,25.98-.84.53-2.81,1.06-3.88,1.27l-1.67.33,8.97,26.88,1.61-.99c1.33-.82,2.54-2.09,3.59-3.76,2.79-1.15,5.65-2.32,8.41-3.44v17.15h-23.01l1.69,7.3h21.32v21.13c-9.81,1.41-17.94,2.43-22.99,2.87l-1.87.16,9.21,28.95,1.4-.4c1.89-.54,3.5-2,4.57-4.15,24.59-11.55,43.35-21.63,55.79-29.96v2.71h4.48c5.79,0,14.67-3.69,14.67-6.87ZM419.56,48.82c-8.67.51-16.95,1-23.76,1.32,6.98-5.03,14.08-11.35,19.39-17.31l.67.99c2.75,4.08,5.19,9.28,6.96,14.81l-3.26.19ZM415.88,32.04c.3-.35.6-.7.89-1.04.18-.04.36-.08.54-.13l-1.43,1.18ZM444.68,107.11l-1.11.19c-5.9,1.01-11.83,1.96-17.57,2.88-2.37.38-4.71.75-7.02,1.13v-18.06h20.25c2.59,0,4.44-1.36,4.94-3.63l.16-.71-.46-.56c-5.19-6.41-14.4-16.25-14.49-16.34l-1.4-1.5-8.65,15.44h-.36v-14.36c2.57-.81,3.81-2.41,3.97-5.06l.09-1.45-12.98-1.27c5.62-2.5,10.63-4.85,14.94-6.88.51,2.58.81,5.42.93,8.63l.02.58.4.42c3.63,3.73,7.8,4.93,11.44,3.29,4.44-2,7.1-7.69,6.62-14.15-.85-11.41-10.49-20.78-25.78-25.08l-.37-.1c1.64-.75,2.76-2.13,3.17-3.96l.31-1.39-9.65-2.65h28.88c1.54,0,2.81-.45,3.72-1.26v85.85Z"/>
  <path class="uuid-e7f6ecf5-149a-405c-bd0f-3f7ace0d3e96" d="M579.41,125.23c-26.68.15-39.42-3.19-48.33-12.74v-3.38l.21.53,1.27-.33c5.4-1.39,10.89-3.29,16.27-5.62v.32l1.01.35c4.83,1.66,8.51,3.82,10.06,5.87,1.86,2.72,2.86,6.99,2.97,12.69l.03,1.47h1.47c10.98,0,17.77-2.5,21.37-7.87,6.38-9.35,6.82-26,4.05-40.15,4.24,7.44,7.33,15.28,8.78,22.42l.11.53.42.34c5.12,4.17,9.14,3.06,11.08,2.03,4.11-2.19,6.39-7.77,5.81-14.23-.41-4.6-3.5-19.75-25.65-28.01,7.96-5.03,14.84-10.2,18.68-13.21,2.88.41,4.83-.48,5.81-2.67l.47-1.04-21.33-17.79-.69,2.09c-2.35,7.1-7.08,18.36-11.43,27.28-3.33-5.95-7.15-11.01-11.59-15.36,6.08-5.02,11.11-10.57,14.96-16.54h26.52c2.63,0,4.57-1.39,5.07-3.63l.17-.79-.56-.58c-6.18-6.41-16.38-15.63-16.48-15.72l-1.3-1.17-9.59,14.59h-58.25l1.69,7.3h26.16c-7.16,13.05-17.18,24.53-27.84,31.85l-10.16-10.03c2.23.65,4.44.49,6.45-.53,4.31-2.19,6.74-7.88,6.05-14.15-1.26-11.49-11.61-20.83-27.68-24.96l-.71-.18-2.6,2.01.64,1.13c6.05,10.75,10.54,22.95,12,32.63l.08.53.39.36c1,.91,2.03,1.66,3.08,2.22l-8.13,13.27h-13.99l1.27,7.3h14.05v51.41c-1.46,1.01-2.97,2.08-4.48,3.16-3.58,2.53-7.28,5.15-10.35,7.1l-1.16.74,12.73,24.44,1.44-1.34c1.38-1.28,2.03-2.85,1.89-4.56,2.23-5.22,5.04-11.04,7.53-16.19,1.92-3.99,3.59-7.43,4.58-9.76.44-.9.75-1.3.92-1.48.18.17.52.58.99,1.5,9.35,18.34,19.82,28.28,48.32,28.28h34.06l.12-1.37c.77-8.83,4.56-15.17,10.15-16.96l1.04-.33v-4.39l-1.6.11c-12.8.87-23.9,1.22-38.31,1.22ZM569.4,100.24c-.28.52-.71.75-2.53.75-2.17,0-6.71-.23-11.05-.57,5.57-2.83,10.91-6.08,15.8-9.64-.38,4.02-1.15,7.32-2.21,9.47ZM531.08,104.49v-38.41c2.97-.79,4.99-2.03,6.3-3.83l.77-1.05-3.3-3.21c9.41-3.4,17.85-7.43,25.21-12.01-6.87,13.27-17.47,26.06-27.46,32.87l-1.03.7,1.79,4.05,1.27-.39c11.17-3.42,23.09-9.61,32.91-17.01-8.88,15.67-22.73,30.3-36.45,38.29Z"/>
  <path class="uuid-e7f6ecf5-149a-405c-bd0f-3f7ace0d3e96" d="M719.33,32.95h16.32c2.64,0,4.5-1.43,4.84-3.74l.1-.66-.43-.52c-4.96-5.97-13.67-14.74-13.76-14.83l-1.37-1.38-8.13,13.82h-.87v-15.56c2.83-.8,4.26-2.48,4.59-5.32l.17-1.5-24.54-2.64v25.02h-14.48c-4.74-5.37-10.6-11.45-10.66-11.51l-1.38-1.43-4.79,8.25v-11.53c2.45-.8,3.76-2.34,4.09-4.79l.21-1.52-23.57-2.66v25.65h-21.64l1.69,7.3h14.6c-4,16.9-10.42,31.4-18.17,40.97l-.66.82,2.46,4.06,1.29-.83c7.83-5.04,14.69-10.96,20.43-17.62v19.7h4.36c2.95,0,6.46-.75,9.62-2.07.18-.07.35-.15.51-.22-7.46,13.49-19.73,29.06-33.51,39l-1.07.77,1.96,3.64,1.19-.38c11.7-3.75,23.25-9.89,33.52-17.79,1.9,4.31,3.24,8.62,3.81,12.3l.09.56.44.36c2.99,2.46,6.3,3.22,9.28,2.18-13.09,10.68-29.7,19.17-50.42,25.92l-1.41.46,1.43,4.59,1.23-.14c46.1-5.15,76.49-22.29,95.56-53.92,3.19-.35,5.58-1.1,6.86-3.27l.58-.99-15.07-15.48c1.22-.98,1.4-1.73,1.4-2.25v-24.27c2.91,12.29,6.97,21.26,12.63,28.14l2.03,2.47.6-3.14c1.87-9.8,5.69-15.94,11.06-17.73l.87-.29.55-3.74-1.06-.46c-9.55-4.12-18.14-12.18-23.37-21.82ZM682.3,107.51c-.28-2.6-1.89-8.66-10.62-12.07,1.54-1.43,2.88-2.75,4.09-4.03h23.62c-4.99,8.58-11.1,16.23-18.47,23.06,1.12-2.02,1.64-4.46,1.38-6.96ZM677.86,72.01c7-3.83,13.17-8.25,18.39-13.18v21.53h4.48c1.79,0,3.54-.24,5.12-.58l-3.7,4.33h-20.02l.54-.67c4-.02,6.36-1.43,7.2-4.32l.35-1.22-12.36-5.9ZM683.39,49.61c-.67-3.39-3.82-11.34-18.45-13.63v-2.57h14.66c.93,0,1.71-.15,2.38-.46h10.1c-2.17,8.07-5.1,15.39-8.7,21.76.34-1.63.36-3.37.01-5.1ZM664.94,49.61c1.11,3.27,1.85,6.52,2.1,9.43l.05.59.44.4c3.51,3.13,7.48,3.8,10.9,1.85.2-.11.39-.23.57-.36-1.96,2.7-4.07,5.16-6.31,7.37l-.45.44-6.52-3.11-.58,1.51c-.07.18-.14.35-.21.53v-18.65Z"/>
  <path class="uuid-e7f6ecf5-149a-405c-bd0f-3f7ace0d3e96" d="M852.31,11.99l-1.37-1.38-8.88,15.05h-19.44c2.69-3.24,3.82-8.02,2.65-12.42-1.12-4.17-5.93-13.76-26.43-12.59l-.58.03-2.05,2.11.79,1.03c3.81,4.99,8.25,13.65,9.62,21.83h-27.14l-21.81-9.2v50.59c0,28.01-.94,57.27-12.15,80.04l-.46.93,2.64,2.85,1.09-.86c25.48-20.11,28.94-50.32,29.25-77.98l.44,1.9h23.56c-4.99,31.9-17.93,55.16-39.54,71.09l-1.12.83,2.28,3.61,1.16-.46c28.78-11.41,46.43-31.15,55.11-61.81,5.71,29.7,15.53,49.32,30.65,61.43l2.18,1.75.25-2.78c.8-8.89,5.42-16.3,13.36-21.43l.6-.38.47-4.06-1.16-.38c-22.21-7.34-36.23-22.85-42.81-47.4h34.63c2.71,0,4.56-1.32,5.07-3.63l.17-.77-.54-.58c-6.3-6.71-17-16.55-17.11-16.65l-1.32-1.21-9.84,15.55h-10.23c1.13-7.62,1.93-15.65,2.42-24.43,2.73-.77,4.34-2.59,4.77-5.45l.23-1.53-18.78-2.26h49.75c2.59,0,4.44-1.36,4.94-3.63l.16-.73-.48-.57c-5.44-6.41-14.9-15.95-14.99-16.04ZM778.05,66.62v-33.67h26.19v.68c.27,11.73-.17,22.81-1.31,32.99h-24.88Z"/>
  <path class="uuid-e7f6ecf5-149a-405c-bd0f-3f7ace0d3e96" d="M938.6,112.19l-1.2-.09-1.19,4.04,1.11.57c16.57,8.47,25.33,20.85,29.08,27.48l.16.23c2.97,3.48,6.41,4.76,9.54,4.76,1.86,0,3.61-.45,5.08-1.16,5.07-2.43,7.89-7.96,6.85-13.44-1.09-5.75-8.09-19.43-49.43-22.39Z"/>
  <path class="uuid-e7f6ecf5-149a-405c-bd0f-3f7ace0d3e96" d="M993.51,103.74c-4.58-6.12-12.92-15.5-13.01-15.59l-1.43-1.61-2.04,3.82v-53.09c2.85-.69,4.42-1.8,5.43-3.75l.55-1.06-19.76-16.61-7.81,12.42h-4.63V11.7c2.15-.8,3.27-2.25,3.59-4.6l.21-1.53-23.08-2.49v25.18h-3.59V11.7c2.21-.82,3.32-2.34,3.48-4.7l.1-1.44-22.73-2.48v25.18h-4.38l-20.1-9.28v82.31h-14.93l1.69,7.3h34.67c-6.86,13.26-20.84,27.95-34.37,36.03l-.95.57.98,4.02,1.42-.3c20.26-4.22,38.08-12.6,49.04-23.04,4.23.58,7.06-.51,8.42-3.23l.6-1.21-20.11-12.84h78.19c2.55,0,4.31-1.32,4.82-3.63l.15-.67-.41-.55ZM956.01,35.56v28.45h-5.2v-28.45h5.2ZM956.01,71.31v29.99h-5.2v-29.99h5.2ZM931.53,35.56v28.45h-3.59v-28.45h3.59ZM931.53,71.31v29.99h-3.59v-29.99h3.59ZM908.78,35.56v28.45h-4.21v-28.45h4.21ZM908.78,71.31v29.99h-4.21v-29.99h4.21Z"/>
</svg>