<?xml version="1.0" encoding="UTF-8"?>
<svg id="uuid-44782d12-cf14-4585-a37a-e575bf862a49" data-name="图层 1" xmlns="http://www.w3.org/2000/svg" viewBox="0 0 1697.5 89.74">
  <defs>
    <style>
      .uuid-e183e1b7-13ac-4486-9c32-18290598537e {
        fill: #cdcdd3;
      }
    </style>
  </defs>
  <polygon class="uuid-e183e1b7-13ac-4486-9c32-18290598537e" points="50.23 24.89 56.93 53.35 74.93 53.35 85.17 8.03 92.03 6.78 92.03 1.88 72.28 1.88 72.28 6.78 79.03 7.97 70.08 51.92 60.41 7.91 68.02 6.81 68.02 1.88 41.93 1.88 41.93 6.81 48.66 7.81 38.86 51.77 29.9 7.65 36.64 6.83 36.64 1.88 9.75 1.88 9.75 6.82 14.93 7.5 25.56 53.35 43.52 53.35 50.23 24.89"/>
  <polygon class="uuid-e183e1b7-13ac-4486-9c32-18290598537e" points="140.2 52.52 134.26 52.52 134.08 53.35 140.2 53.35 140.2 52.52"/>
  <path class="uuid-e183e1b7-13ac-4486-9c32-18290598537e" d="M115.97,39.77h8.18l1.03,9.94h5.59v-25.61h-5.59l-1.1,10.41h-8.11c0-9.4,0-18.32.13-27.1h13.16l3.39,15h6.08l.08-20.54h-44.13v4.96l6.65.75c.2,9.39.2,18.97.2,28.24v4.13c0,4.42,0,8.91-.02,13.4h14.49c-.01-4.44-.02-8.95-.02-13.58Z"/>
  <polygon class="uuid-e183e1b7-13ac-4486-9c32-18290598537e" points="189.48 50.92 183.68 50.92 183.17 53.35 189.49 53.35 189.48 50.92"/>
  <path class="uuid-e183e1b7-13ac-4486-9c32-18290598537e" d="M166.35,40.42v-6.1c0-8.19,0-17.45.13-26.65l7.23-.85V1.88h-28.66v4.96l6.65.75c.2,9.39.2,18.97.2,28.24v6.66c0,3.32,0,7-.02,10.86h14.48c-.01-4.36-.01-8.68-.01-12.93Z"/>
  <polygon class="uuid-e183e1b7-13ac-4486-9c32-18290598537e" points="240.88 51.39 234.74 51.39 234.3 53.35 240.91 53.35 240.88 51.39"/>
  <path class="uuid-e183e1b7-13ac-4486-9c32-18290598537e" d="M208.19,37.89c0-20.32,6.51-32.45,17.41-32.45,1.66,0,3.14.23,4.51.69l4.11,18.16h6.14l.32-18.47-.41-.29c-5.57-3.93-10.27-5.53-16.21-5.53-18.77,0-30.9,14.84-30.9,37.8,0,5.99.72,11.14,2,15.55h14.61c-1.03-4.38-1.57-9.56-1.57-15.46Z"/>
  <path class="uuid-e183e1b7-13ac-4486-9c32-18290598537e" d="M260.56,37.8c0-20.26,4.53-32.35,12.11-32.35s12.11,12.09,12.11,32.35c0,5.91-.39,11.12-1.12,15.55h14.15c1.23-4.47,1.93-9.64,1.93-15.55,0-26.11-13.6-37.8-27.07-37.8-7.4,0-14.16,3.46-19.05,9.74-5.3,6.81-8.1,16.51-8.1,28.06,0,5.91.7,11.08,1.94,15.55h14.22c-.73-4.43-1.12-9.64-1.12-15.55Z"/>
  <path class="uuid-e183e1b7-13ac-4486-9c32-18290598537e" d="M315.73,40.33c0-4.68-.09-12.9-.19-20.72l10.12,33.74h17.48l9.85-34.06-.22,22.89c-.07,3.4-.07,7.17-.08,11.16h14.48c-.02-4.48-.02-8.97-.02-13.4v-4.13c0-9.27,0-18.85.2-28.24l6.65-.75V1.88h-21.21l-13.84,47.24-14.26-47.24h-22.08v4.93l7.8,1.22-.22,45.33h5.54v-13.02Z"/>
  <polygon class="uuid-e183e1b7-13ac-4486-9c32-18290598537e" points="424.3 52.52 418.36 52.52 418.18 53.35 424.3 53.35 424.3 52.52"/>
  <path class="uuid-e183e1b7-13ac-4486-9c32-18290598537e" d="M400.07,39.77h8.18l1.03,9.94h5.59v-25.61h-5.59l-1.1,10.41h-8.11c0-9.4,0-18.32.13-27.1h13.16l3.39,15h6.08l.08-20.54h-44.13v4.96l6.65.75c.2,9.39.2,18.97.2,28.24v4.13c0,4.42,0,8.91-.02,13.4h14.49c-.01-4.44-.02-8.95-.02-13.58Z"/>
  <path class="uuid-e183e1b7-13ac-4486-9c32-18290598537e" d="M479.55,39.86v-4.03c0-9.8,0-19.08.13-28.41h8.44l3.76,16.41h6.09l-.32-21.95h-50.58l-.32,21.95h6.17l3.68-16.41h8.37c.13,9.37.13,19.04.13,28.41v4.13c0,4.42,0,8.92-.02,13.4h14.48c-.02-4.53-.02-9.04-.02-13.49Z"/>
  <path class="uuid-e183e1b7-13ac-4486-9c32-18290598537e" d="M515.42,37.8c0-20.26,4.53-32.35,12.11-32.35s12.11,12.09,12.11,32.35c0,5.91-.39,11.12-1.12,15.55h14.15c1.23-4.47,1.93-9.64,1.93-15.55,0-26.11-13.6-37.8-27.07-37.8-7.4,0-14.16,3.46-19.05,9.74-5.3,6.81-8.1,16.51-8.1,28.06,0,5.91.7,11.08,1.94,15.55h14.22c-.73-4.43-1.12-9.64-1.12-15.55Z"/>
  <path class="uuid-e183e1b7-13ac-4486-9c32-18290598537e" d="M599.76,39.11v-3.09c0-9.94,0-19.35.13-28.7h2.55c10.08,0,15.87,11.11,15.87,30.48,0,6-.56,11.21-1.63,15.55h14.08c1.55-4.6,2.37-9.88,2.37-15.74,0-22.37-11.03-35.73-29.5-35.73h-25.16v4.96l6.65.75c.2,9.39.2,19.06.2,28.42v3.09c0,4.87,0,9.6-.02,14.24h14.49c-.01-4.66-.02-9.38-.02-14.24Z"/>
  <path class="uuid-e183e1b7-13ac-4486-9c32-18290598537e" d="M657.43,40.71h2.61c4.58,0,6.4,2.58,7.48,10.64l.33,2h14.79c-1.13-8.17-3.31-13.36-10.5-15.76,11.06-3.61,12.83-12.1,12.83-17.14,0-11.8-7.67-18.57-21.03-18.57h-27.52v4.96l6.65.75c.2,9.39.2,18.97.2,28.24v4.13c0,4.42,0,8.91-.02,13.4h14.2c-.02-4.15-.02-8.34-.02-12.64ZM657.63,7.32h3.22c8.55,0,10.34,7.29,10.34,13.41,0,5.46-1.35,14.63-10.42,14.63h-3.35c0-10.22,0-19.15.2-28.04Z"/>
  <path class="uuid-e183e1b7-13ac-4486-9c32-18290598537e" d="M715.18,39.77h8.18l1.03,9.94h5.59v-25.61h-5.59l-1.1,10.41h-8.11c0-9.4,0-18.32.13-27.1h13.16l3.39,15h6.08l.08-20.54h-44.13v4.96l6.65.75c.2,9.39.2,18.97.2,28.24v4.13c0,4.42,0,8.91-.02,13.4h14.49c-.01-4.44-.02-8.95-.02-13.58Z"/>
  <polygon class="uuid-e183e1b7-13ac-4486-9c32-18290598537e" points="739.4 52.52 733.47 52.52 733.29 53.35 739.41 53.35 739.4 52.52"/>
  <path class="uuid-e183e1b7-13ac-4486-9c32-18290598537e" d="M758.23,51.58h15.34l.44,1.77h14.42l-13.8-51.75h-9.23l-13.05,51.75h5.48l.4-1.77ZM765.56,19.56l6.72,26.86h-12.89l6.17-26.86Z"/>
  <path class="uuid-e183e1b7-13ac-4486-9c32-18290598537e" d="M813.44,40.33c0-4.68-.09-12.9-.19-20.72l10.12,33.74h17.48l9.85-34.06-.22,22.89c-.07,3.4-.07,7.17-.08,11.16h14.48c-.02-4.48-.02-8.97-.02-13.4v-4.13c0-9.27,0-18.85.2-28.24l6.65-.75V1.88h-21.21l-13.83,47.24-14.26-47.24h-22.08v4.93l7.8,1.22-.22,45.33h5.54v-13.02Z"/>
  <polygon class="uuid-e183e1b7-13ac-4486-9c32-18290598537e" points="920.89 50.92 915.1 50.92 914.59 53.35 920.91 53.35 920.89 50.92"/>
  <path class="uuid-e183e1b7-13ac-4486-9c32-18290598537e" d="M897.77,40.42v-6.1c0-8.19,0-17.45.13-26.65l7.23-.85V1.88h-28.66v4.96l6.65.75c.2,9.39.2,18.97.2,28.24v6.66c0,3.32,0,7-.02,10.86h14.48c-.01-4.36-.01-8.68-.01-12.93Z"/>
  <path class="uuid-e183e1b7-13ac-4486-9c32-18290598537e" d="M939.13,51.58h15.34l.44,1.77h14.42l-13.8-51.75h-9.23l-13.05,51.75h5.48l.4-1.77ZM946.46,19.56l6.72,26.86h-12.89l6.17-26.86Z"/>
  <polygon class="uuid-e183e1b7-13ac-4486-9c32-18290598537e" points="993.05 18.61 1012.39 53.35 1032.13 53.35 1032.49 8 1039.27 6.78 1039.27 1.88 1016.94 1.88 1016.94 6.82 1026.74 8.13 1027.07 48.15 1000.79 1.88 981.44 1.88 981.44 6.81 987.01 7.61 988.06 9.6 987.74 53.35 993.33 53.35 993.05 18.61"/>
  <path class="uuid-e183e1b7-13ac-4486-9c32-18290598537e" d="M1064.09,39.11v-3.09c0-9.94,0-19.35.13-28.7h2.55c10.08,0,15.87,11.11,15.87,30.48,0,6-.56,11.21-1.63,15.55h14.08c1.55-4.6,2.37-9.88,2.37-15.74,0-22.37-11.03-35.73-29.5-35.73h-25.16v4.96l6.65.75c.2,9.39.2,19.06.2,28.42v3.09c0,4.87,0,9.6-.02,14.24h14.49c-.01-4.66-.02-9.38-.02-14.24Z"/>
  <path class="uuid-e183e1b7-13ac-4486-9c32-18290598537e" d="M1136.5,37.89c0-20.32,6.51-32.45,17.41-32.45,1.66,0,3.14.23,4.51.69l4.11,18.16h6.14l.32-18.47-.41-.29c-5.57-3.93-10.27-5.53-16.22-5.53-18.77,0-30.9,14.84-30.9,37.8,0,5.99.72,11.14,2,15.55h14.61c-1.03-4.38-1.57-9.56-1.57-15.46Z"/>
  <polygon class="uuid-e183e1b7-13ac-4486-9c32-18290598537e" points="1169.18 51.39 1163.04 51.39 1162.61 53.35 1169.22 53.35 1169.18 51.39"/>
  <polygon class="uuid-e183e1b7-13ac-4486-9c32-18290598537e" points="1219.72 52.52 1213.79 52.52 1213.61 53.35 1219.73 53.35 1219.72 52.52"/>
  <path class="uuid-e183e1b7-13ac-4486-9c32-18290598537e" d="M1195.5,39.77h8.18l1.03,9.94h5.59v-25.61h-5.59l-1.11,10.41h-8.11c0-9.4,0-18.32.13-27.1h13.16l3.39,15h6.08l.08-20.54h-44.13v4.96l6.65.75c.2,9.39.2,18.97.2,28.24v4.13c0,4.42,0,8.91-.02,13.4h14.49c-.01-4.44-.02-8.95-.02-13.58Z"/>
  <path class="uuid-e183e1b7-13ac-4486-9c32-18290598537e" d="M1245.88,40.42v-6.1c0-8.19,0-17.45.13-26.65l7.23-.85V1.88h-28.66v4.96l6.65.75c.2,9.39.2,18.97.2,28.24v6.66c0,3.32,0,7-.02,10.86h14.48c-.01-4.36-.01-8.68-.01-12.93Z"/>
  <polygon class="uuid-e183e1b7-13ac-4486-9c32-18290598537e" points="1269 50.92 1263.21 50.92 1262.7 53.35 1269.02 53.35 1269 50.92"/>
  <path class="uuid-e183e1b7-13ac-4486-9c32-18290598537e" d="M1294.2,39.77h8.18l1.03,9.94h5.59v-25.61h-5.59l-1.11,10.41h-8.11c0-9.4,0-18.32.13-27.1h13.16l3.39,15h6.08l.08-20.54h-44.13v4.96l6.65.75c.2,9.39.2,18.97.2,28.24v4.13c0,4.42,0,8.91-.02,13.4h14.49c-.01-4.44-.02-8.95-.02-13.58Z"/>
  <polygon class="uuid-e183e1b7-13ac-4486-9c32-18290598537e" points="1318.43 52.52 1312.49 52.52 1312.31 53.35 1318.43 53.35 1318.43 52.52"/>
  <path class="uuid-e183e1b7-13ac-4486-9c32-18290598537e" d="M1344.29,38.83h2.54c8.29,0,12.03,4.49,12.1,14.52h14.75c0-9.64-5.19-15.72-15.43-18.11,8.09-2.85,12.19-8.22,12.19-16.01s-3.51-17.35-20.22-17.35h-26.93v4.96l6.65.75c.2,9.2.2,18.64.2,27.77v3.38c0,4.82,0,9.72-.03,14.62h14.2c-.02-4.73-.03-9.56-.03-14.52ZM1344.49,7.32h2.48c6.5,0,9.53,3.96,9.53,12.47,0,6.29-1.79,13.78-10.34,13.78h-1.87c0-9.07,0-17.68.2-26.26Z"/>
  <path class="uuid-e183e1b7-13ac-4486-9c32-18290598537e" d="M1397.39,40.71h2.61c4.58,0,6.4,2.58,7.48,10.64l.33,2h14.8c-1.13-8.17-3.31-13.36-10.5-15.76,11.06-3.61,12.83-12.1,12.83-17.14,0-11.8-7.67-18.57-21.03-18.57h-27.52v4.96l6.65.75c.2,9.39.2,18.97.2,28.24v4.13c0,4.42,0,8.91-.02,13.4h14.2c-.02-4.15-.02-8.34-.02-12.64ZM1397.59,7.32h3.22c8.55,0,10.34,7.29,10.34,13.41,0,5.46-1.35,14.63-10.42,14.63h-3.35c0-10.22,0-19.15.2-28.04Z"/>
  <path class="uuid-e183e1b7-13ac-4486-9c32-18290598537e" d="M1448.61,51.58h15.34l.44,1.77h14.42l-13.8-51.75h-9.23l-13.05,51.75h5.48l.4-1.77ZM1455.95,19.56l6.72,26.86h-12.89l6.17-26.86Z"/>
  <path class="uuid-e183e1b7-13ac-4486-9c32-18290598537e" d="M1517.01,39.86v-4.03c0-9.8,0-19.08.13-28.41h8.44l3.76,16.41h6.09l-.32-21.95h-50.58l-.32,21.95h6.17l3.68-16.41h8.37c.13,9.37.13,19.04.13,28.41v4.13c0,4.42,0,8.92-.02,13.4h14.48c-.02-4.53-.02-9.04-.02-13.49Z"/>
  <path class="uuid-e183e1b7-13ac-4486-9c32-18290598537e" d="M1560.18,39.86v-4.03c0-9.31,0-18.93.13-28.24l6.57-.75V1.88h-28v4.96l6.65.75c.2,9.39.2,18.97.2,28.24v4.13c0,4.42,0,8.91-.02,13.4h14.49c-.02-4.53-.02-9.05-.02-13.49Z"/>
  <path class="uuid-e183e1b7-13ac-4486-9c32-18290598537e" d="M1585.88,37.8c0-20.26,4.53-32.35,12.11-32.35s12.11,12.09,12.11,32.35c0,5.91-.39,11.12-1.12,15.55h14.15c1.23-4.47,1.93-9.64,1.93-15.55,0-26.11-13.6-37.8-27.07-37.8-7.4,0-14.16,3.46-19.05,9.74-5.3,6.81-8.1,16.51-8.1,28.06,0,5.91.7,11.08,1.94,15.55h14.22c-.73-4.43-1.12-9.64-1.12-15.55Z"/>
  <polygon class="uuid-e183e1b7-13ac-4486-9c32-18290598537e" points="1639.76 18.61 1659.11 53.35 1678.84 53.35 1679.2 8 1685.98 6.78 1685.98 1.88 1663.65 1.88 1663.65 6.82 1673.46 8.13 1673.79 48.15 1647.5 1.88 1628.15 1.88 1628.15 6.81 1633.72 7.61 1634.78 9.6 1634.45 53.35 1640.05 53.35 1639.76 18.61"/>
  <path class="uuid-e183e1b7-13ac-4486-9c32-18290598537e" d="M1309.1,68.27l3.21-14.92h-18.09c.02,5.05.05,10.01.12,14.92h14.77Z"/>
  <path class="uuid-e183e1b7-13ac-4486-9c32-18290598537e" d="M1259.53,68.27l3.17-14.92h-16.8c.02,4.93.05,9.92.12,14.92h13.51Z"/>
  <path class="uuid-e183e1b7-13ac-4486-9c32-18290598537e" d="M1210.4,68.27l3.21-14.92h-18.09c.02,5.05.05,10.01.12,14.92h14.77Z"/>
  <path class="uuid-e183e1b7-13ac-4486-9c32-18290598537e" d="M1344.49,68.46h2.78c7.52,0,11.67-5.26,11.67-14.82,0-.1,0-.19,0-.3h-14.61c.02,5.15.07,10.18.18,15.11Z"/>
  <path class="uuid-e183e1b7-13ac-4486-9c32-18290598537e" d="M1597.99,70.24c5.38,0,9.21-6.1,10.99-16.89h-21.99c1.78,10.79,5.62,16.89,10.99,16.89Z"/>
  <path class="uuid-e183e1b7-13ac-4486-9c32-18290598537e" d="M272.67,70.24c5.38,0,9.21-6.1,10.99-16.89h-21.99c1.78,10.79,5.62,16.89,10.99,16.89Z"/>
  <path class="uuid-e183e1b7-13ac-4486-9c32-18290598537e" d="M527.53,70.24c5.38,0,9.21-6.1,10.99-16.89h-21.99c1.78,10.79,5.62,16.89,10.99,16.89Z"/>
  <path class="uuid-e183e1b7-13ac-4486-9c32-18290598537e" d="M911.42,68.27l3.17-14.92h-16.8c.02,4.93.05,9.92.12,14.92h13.51Z"/>
  <path class="uuid-e183e1b7-13ac-4486-9c32-18290598537e" d="M225.9,70.15c1.78,0,3.34-.3,4.87-.93l3.53-15.87h-24.54c2.55,10.83,8.13,16.8,16.14,16.8Z"/>
  <path class="uuid-e183e1b7-13ac-4486-9c32-18290598537e" d="M1064.23,68.46h2.25c7.11,0,12.12-5.36,14.53-15.11h-16.9c.02,5.1.05,10.12.12,15.11Z"/>
  <path class="uuid-e183e1b7-13ac-4486-9c32-18290598537e" d="M730.08,68.27l3.21-14.92h-18.09c.02,5.05.05,10.01.12,14.92h14.77Z"/>
  <path class="uuid-e183e1b7-13ac-4486-9c32-18290598537e" d="M599.89,68.46h2.25c7.11,0,12.12-5.36,14.53-15.11h-16.9c.02,5.1.05,10.12.12,15.11Z"/>
  <path class="uuid-e183e1b7-13ac-4486-9c32-18290598537e" d="M414.97,68.27l3.21-14.92h-18.09c.02,5.05.05,10.01.12,14.92h14.77Z"/>
  <path class="uuid-e183e1b7-13ac-4486-9c32-18290598537e" d="M1154.21,70.15c1.78,0,3.34-.3,4.87-.93l3.53-15.87h-24.54c2.55,10.83,8.13,16.8,16.14,16.8Z"/>
  <path class="uuid-e183e1b7-13ac-4486-9c32-18290598537e" d="M180,68.27l3.17-14.92h-16.8c.02,4.93.05,9.92.12,14.92h13.51Z"/>
  <path class="uuid-e183e1b7-13ac-4486-9c32-18290598537e" d="M12.53,89.74h1671.04c.77,0,1.51-.35,2-.95l10.84-13.37c.71-.87,1.1-1.97,1.1-3.09v-17.53c0-.8-.65-1.45-1.45-1.45h-17.2l-.16,20.65h-8.08l-11.5-20.65h-19.06l.12,14.12,9.88,1.41v4.94h-22.48v-4.89l6.78-1.31.11-14.25h-11.32c-4.21,15.31-14.71,22.34-25.14,22.34s-20.99-7.03-25.21-22.34h-12.59c.02,4.89.05,9.79.12,14.67l6.57.85v4.95h-28v-4.95l6.65-.85c.11-4.82.16-9.74.18-14.67h-28.68c.02,4.87.05,9.75.12,14.57l7.53.94v4.95h-29.69v-4.95l7.45-.94c.07-4.77.1-9.66.12-14.57h-23.74l3.91,14.65,6.08.87v4.94h-27.12v-4.94l6.34-.91-3.63-14.62h-16.18l-3.27,14.37,6.73,1.18v4.91h-18.87v-4.9l6.29-1.16,3.63-14.4h-19.86l-.22.26,2.31,14.72,6.68.48v4.74l-.69.21c-3.17.99-5.34,1.45-9.08,1.45-7.75,0-11.53-3.39-12.26-10.98l-1.8-10.88h-10.4c.02,4.92.07,9.79.18,14.66l6.79.85v4.95h-28v-4.95l6.65-.85c.11-4.82.16-9.74.18-14.67h-9.54s0,0,0,.01c0,5.61-1.85,10.4-5.34,13.85-4.43,4.38-11.4,6.6-20.7,6.6h-24.35v-4.95l6.65-.85c.1-4.82.15-9.73.18-14.67h-11.68l.15,20.46h-45.68v-4.95l6.65-.85c.11-4.82.16-9.74.18-14.67h-10.71l.14,20.46h-44.6l.12-4.95,6.55-.84c.11-4.99.16-9.97.18-14.67h-11.68l.15,20.46h-45.68v-4.95l6.65-.85c.11-4.82.16-9.74.18-14.67h-11.81l.29,16.31-.38.29c-5.14,3.86-10.81,5.74-17.34,5.74-11.52,0-23.65-6.15-28.32-22.34h-28.37c-4.34,12.91-14.44,20.46-28.46,20.46h-23.83v-4.95l6.65-.85c.11-4.78.15-9.67.18-14.67h-17.49l-.16,20.65h-8.08l-11.5-20.65h-19.06l.12,14.12,9.88,1.41v4.94h-22.48v-4.89l6.78-1.31.11-14.25h-18.42l3.91,14.65,6.08.87v4.94h-27.12v-4.94l6.34-.91-3.63-14.62h-16.18l-3.27,14.37,6.73,1.18v4.91h-18.87v-4.9l6.29-1.16,3.63-14.4h-12.33l.14,20.46h-44.6l.11-4.95,6.55-.84c.11-4.99.16-9.97.18-14.67h-18.44c.02,4.95.07,9.87.18,14.67l6.57.85v4.95h-27.85v-4.95l6.5-.85c.1-5,.11-9.91.12-14.67h-9.55l-5.92,20.46h-5.42l-6.14-20.46h-9.93v14.14l8.18,1.41v4.91h-21.89v-4.92l8.11-1.31.07-14.23h-19.48l3.91,14.65,6.08.87v4.94h-27.12v-4.94l6.34-.91-3.63-14.62h-16.18l-3.27,14.37,6.73,1.18v4.91h-18.87v-4.9l6.29-1.16,3.63-14.4h-12.93l.16,20.46h-45.68v-4.95l6.65-.85c.11-4.82.15-9.74.18-14.67h-18.06s2.35,14.98,2.35,14.98l6.68.48v4.74l-.69.21c-3.17.99-5.34,1.45-9.08,1.45-7.75,0-11.53-3.39-12.27-10.98l-1.8-10.88h-10.4c.02,4.92.07,9.79.18,14.66l6.79.85v4.95h-28v-4.95l6.65-.85c.11-4.82.15-9.74.18-14.67h-12.5c-4.34,12.91-14.44,20.46-28.46,20.46h-23.83v-4.95l6.65-.85c.1-4.78.15-9.67.18-14.67h-32.61c-4.21,15.31-14.71,22.34-25.14,22.34s-20.99-7.03-25.21-22.34h-22.76c.02,4.87.05,9.75.12,14.57l7.52.94v4.95h-29.69v-4.95l7.45-.94c.07-4.77.1-9.66.12-14.57h-40.78l.16,20.46h-45.68v-4.95l6.65-.85c.11-4.82.15-9.74.18-14.67h-18.43c.02,4.95.07,9.87.18,14.67l6.57.85v4.95h-27.85v-4.95l6.5-.85c.1-5,.11-9.9.12-14.65,0,0,0-.01,0-.02h-9.55l-5.92,20.46h-5.42l-6.14-20.46h-9.93v14.14l8.18,1.41v4.91h-21.89v-4.92l8.11-1.31.07-14.23h-12.38c-4.21,15.31-14.71,22.34-25.14,22.34s-20.99-7.03-25.21-22.34h-6.55l.28,16.31-.38.29c-5.14,3.86-10.81,5.74-17.34,5.74-11.51,0-23.65-6.15-28.32-22.34h-5.66l.14,20.46h-44.6l.11-4.95,6.56-.84c.11-4.99.16-9.97.18-14.67h-11.68l.16,20.46h-45.68v-4.95l6.65-.85c.11-4.82.15-9.74.18-14.67h-26.58l-4.67,20.65h-8.46l-4.87-20.65h-13.41l-4.87,20.65h-8.31l-4.79-20.65H1.37c-.76,0-1.37.61-1.37,1.37v18.06c0,.59.18,1.17.53,1.65l10.27,14.41c.4.56,1.05.89,1.73.89Z"/>
  <path class="uuid-e183e1b7-13ac-4486-9c32-18290598537e" d="M130.87,68.27l3.21-14.92h-18.09c.02,5.05.05,10.01.12,14.92h14.77Z"/>
</svg>