<?xml version="1.0" encoding="UTF-8"?>
<svg id="uuid-cb3ec7d8-2889-4b68-914f-fc2ddb652843" data-name="图层 1" xmlns="http://www.w3.org/2000/svg" viewBox="0 0 1698.05 90.03">
  <defs>
    <style>
      .uuid-b5038119-d22e-4254-bf8b-e7316854cf26 {
        fill: #cdcdd3;
      }
    </style>
  </defs>
  <polygon class="uuid-b5038119-d22e-4254-bf8b-e7316854cf26" points="51.75 25.01 58.18 49.54 77.38 49.54 86.94 8.9 94.39 7.68 94.39 1.63 72.84 1.63 72.84 7.69 79.94 8.82 71.04 49.48 61.06 8.76 68.95 7.72 68.95 1.63 42.13 1.63 42.13 7.71 49.41 8.74 39.29 49.2 30.32 8.6 37.4 7.73 37.4 1.63 10.05 1.63 10.05 7.73 16.22 8.49 26.25 49.54 45.53 49.54 51.75 25.01"/>
  <path class="uuid-b5038119-d22e-4254-bf8b-e7316854cf26" d="M116.77,39.42h8.71l1.07,9.54h6.42v-25.89h-6.41l-1.15,9.9h-8.63c0-8.49.01-16.57.19-24.52h14.82l2.9,13.99h6.84l-.09-20.8h-45.68v6.11l7.28.82c.13,8.73.13,17.55.13,26.08v4.45c0,3.45,0,6.95-.01,10.45h13.63c-.01-3.32-.02-6.68-.02-10.13Z"/>
  <path class="uuid-b5038119-d22e-4254-bf8b-e7316854cf26" d="M167.79,40.01v-6.08c0-8.24,0-16.74.2-25.27l7.67-.91V1.63h-28.88v6.11l7.28.82c.13,8.73.13,17.55.13,26.08v6.08c0,2.82,0,5.77,0,8.81h13.62c-.01-3.28-.01-6.49-.01-9.54Z"/>
  <polygon class="uuid-b5038119-d22e-4254-bf8b-e7316854cf26" points="192.86 49.41 186.01 49.41 185.98 49.54 192.86 49.54 192.86 49.41"/>
  <path class="uuid-b5038119-d22e-4254-bf8b-e7316854cf26" d="M209.96,36.92c0-18.91,6.87-30.2,18.37-30.2,2.06,0,3.85.35,5.57,1.09l3.46,15.98h7.04l.17-18.01-.67-.45c-5.48-3.69-10.7-5.34-16.95-5.34-15.61,0-31.36,11.39-31.36,36.83,0,4.59.52,8.85,1.49,12.72h14.12c-.82-3.7-1.25-7.93-1.25-12.62Z"/>
  <path class="uuid-b5038119-d22e-4254-bf8b-e7316854cf26" d="M263.2,36.83c0-14.55,3.54-30.11,13.48-30.11,6.55,0,13.55,7.91,13.55,30.11,0,4.29-.31,8.67-1,12.72h13.9c.9-3.77,1.4-8,1.4-12.72,0-25.3-14.43-36.83-27.85-36.83-7.52,0-14.46,3.45-19.56,9.7-5.47,6.72-8.37,16.11-8.37,27.13,0,4.55.48,8.81,1.41,12.72h14.03c-.69-4.04-.99-8.42-.99-12.72Z"/>
  <path class="uuid-b5038119-d22e-4254-bf8b-e7316854cf26" d="M321.02,37.28c0-2.59-.07-8.68-.18-15.04l8.99,27.3h13.81l-15.86-47.91h-21.21v6.07l8.01,1.18-.21,40.66h6.64v-12.26Z"/>
  <path class="uuid-b5038119-d22e-4254-bf8b-e7316854cf26" d="M359.15,21.73l-.1,18.79c-.06,2.88-.07,5.88-.08,9.02h13.61c0-3.5,0-7,0-10.45v-4.45c0-8.54,0-17.35.07-26.08l7.34-.82V1.63h-20.91l-15.43,47.91h6.66l8.85-27.81Z"/>
  <path class="uuid-b5038119-d22e-4254-bf8b-e7316854cf26" d="M404.89,39.42h8.71l1.07,9.54h6.42v-25.89h-6.41l-1.15,9.9h-8.63c0-8.49.01-16.57.19-24.52h14.82l2.9,13.99h6.84l-.09-20.8h-45.68v6.11l7.28.82c.13,8.73.13,17.55.13,26.08v4.45c0,3.45,0,6.95-.01,10.45h13.63c-.01-3.32-.02-6.68-.02-10.13Z"/>
  <path class="uuid-b5038119-d22e-4254-bf8b-e7316854cf26" d="M485.4,39.1v-4.45c0-8.65,0-17.58.13-26.2h9.16l3.13,14.99h7.02l-.53-21.8h-51.41l-.62,21.8h7.02l3.21-14.99h9.15c.06,8.7.06,17.59.06,26.2v4.45c0,3.45,0,6.95,0,10.45h13.7c0-3.51-.01-7-.01-10.45Z"/>
  <path class="uuid-b5038119-d22e-4254-bf8b-e7316854cf26" d="M520.61,36.83c0-14.55,3.54-30.11,13.48-30.11,6.55,0,13.55,7.91,13.55,30.11,0,4.29-.31,8.67-1,12.72h13.9c.9-3.77,1.4-8,1.4-12.72,0-25.3-14.43-36.83-27.85-36.83-7.52,0-14.46,3.45-19.56,9.7-5.47,6.72-8.37,16.11-8.37,27.13,0,4.55.48,8.81,1.41,12.72h14.03c-.69-4.04-.99-8.42-.99-12.72Z"/>
  <path class="uuid-b5038119-d22e-4254-bf8b-e7316854cf26" d="M606.24,37.92v-3c0-9.28,0-18.07.19-26.75h3.74c11.01,0,17.07,10.18,17.07,28.65,0,4.8-.45,9.05-1.31,12.72h13.9c1.06-3.86,1.62-8.14,1.62-12.81,0-21.65-11.55-35.1-30.14-35.1h-26.09v6.11l7.28.82c.13,8.71.13,17.29.13,26.36v3c0,3.97,0,7.83-.01,11.63h13.63c-.01-3.8-.02-7.66-.02-11.63Z"/>
  <path class="uuid-b5038119-d22e-4254-bf8b-e7316854cf26" d="M664.6,40.33h2.71c5.14,0,7.02,2.07,8.28,9.22h13.8c-1.24-5.77-3.32-10.02-8.21-12.31,7.55-2.94,11.77-8.88,11.77-16.84,0-11.74-8.18-18.76-21.89-18.76h-27.31v6.11l7.28.82c.13,8.73.13,17.55.13,26.08v4.45c0,3.45,0,6.95-.01,10.45h13.48c-.01-3.03-.02-6.09-.02-9.22ZM664.79,8.18h4.12c7.17,0,10.8,4.14,10.8,12.3,0,12.17-7.72,13.49-11.03,13.49h-4.08c0-9.33,0-17.56.19-25.79Z"/>
  <path class="uuid-b5038119-d22e-4254-bf8b-e7316854cf26" d="M721.81,39.42h8.71l1.07,9.54h6.42v-25.89h-6.41l-1.15,9.9h-8.63c0-8.49.01-16.57.19-24.52h14.82l2.9,13.99h6.84l-.09-20.8h-45.68v6.11l7.28.82c.13,8.73.13,17.55.13,26.08v4.45c0,3.45,0,6.95-.01,10.45h13.63c-.01-3.32-.02-6.68-.02-10.13Z"/>
  <path class="uuid-b5038119-d22e-4254-bf8b-e7316854cf26" d="M822.26,37.28c0-2.59-.07-8.68-.18-15.04l8.99,27.3h13.81l-15.86-47.91h-21.21v6.07l8.01,1.18-.21,40.66h6.64v-12.26Z"/>
  <path class="uuid-b5038119-d22e-4254-bf8b-e7316854cf26" d="M860.39,21.73l-.1,18.79c-.06,2.88-.07,5.88-.08,9.02h13.61c0-3.5,0-7,0-10.45v-4.45c0-8.54,0-17.35.07-26.08l7.34-.82V1.63h-20.91l-15.43,47.91h6.66l8.85-27.81Z"/>
  <path class="uuid-b5038119-d22e-4254-bf8b-e7316854cf26" d="M782.55,1.36h-8.91l-13.24,48.18h35.96l-13.82-48.18ZM768.46,43.87l6.19-23.82,6.42,23.82h-12.61Z"/>
  <polygon class="uuid-b5038119-d22e-4254-bf8b-e7316854cf26" points="931.19 49.41 924.35 49.41 924.32 49.54 931.19 49.54 931.19 49.41"/>
  <path class="uuid-b5038119-d22e-4254-bf8b-e7316854cf26" d="M906.13,40.01v-6.08c0-8.24,0-16.74.2-25.27l7.67-.91V1.63h-28.88v6.11l7.28.82c.13,8.73.13,17.55.13,26.08v6.08c0,2.82,0,5.77,0,8.81h13.62c-.01-3.28-.01-6.49-.01-9.54Z"/>
  <path class="uuid-b5038119-d22e-4254-bf8b-e7316854cf26" d="M965.34,1.36h-8.91l-13.24,48.18h35.96l-13.82-48.18ZM951.25,43.87l6.19-23.82,6.42,23.82h-12.61Z"/>
  <polygon class="uuid-b5038119-d22e-4254-bf8b-e7316854cf26" points="1004 19.85 1021.75 49.54 1043.14 49.54 1043.38 8.86 1050.42 7.67 1050.42 1.63 1026.81 1.63 1026.81 7.72 1036.67 9 1036.86 47.15 1009.28 1.63 990.83 1.63 990.83 7.71 997.24 8.61 997.85 9.57 997.59 49.54 1004.13 49.54 1004 19.85"/>
  <path class="uuid-b5038119-d22e-4254-bf8b-e7316854cf26" d="M1074.02,37.92v-3c0-9.28,0-18.07.19-26.75h3.74c11.01,0,17.07,10.18,17.07,28.65,0,4.8-.45,9.05-1.31,12.72h13.9c1.06-3.86,1.62-8.14,1.62-12.81,0-21.65-11.55-35.1-30.14-35.1h-26.09v6.11l7.28.82c.13,8.71.13,17.29.13,26.36v3c0,3.97,0,7.83-.01,11.63h13.63c-.01-3.8-.02-7.66-.02-11.63Z"/>
  <path class="uuid-b5038119-d22e-4254-bf8b-e7316854cf26" d="M1147.12,36.92c0-18.91,6.87-30.2,18.37-30.2,2.06,0,3.85.35,5.57,1.09l3.46,15.98h7.04l.17-18.01-.67-.45c-5.48-3.69-10.7-5.34-16.95-5.34-15.61,0-31.36,11.39-31.36,36.83,0,4.59.52,8.85,1.49,12.72h14.12c-.82-3.7-1.25-7.93-1.25-12.62Z"/>
  <path class="uuid-b5038119-d22e-4254-bf8b-e7316854cf26" d="M1200.36,36.83c0-14.55,3.54-30.11,13.48-30.11,6.55,0,13.55,7.91,13.55,30.11,0,4.29-.31,8.67-1,12.72h13.9c.9-3.77,1.4-8,1.4-12.72,0-25.3-14.43-36.83-27.85-36.83-7.52,0-14.46,3.45-19.56,9.7-5.47,6.73-8.37,16.11-8.37,27.13,0,4.55.48,8.81,1.41,12.72h14.03c-.69-4.04-.99-8.42-.99-12.72Z"/>
  <polygon class="uuid-b5038119-d22e-4254-bf8b-e7316854cf26" points="1257.13 19.85 1274.88 49.54 1296.27 49.54 1296.52 8.86 1303.55 7.67 1303.55 1.63 1279.94 1.63 1279.94 7.72 1289.8 9 1290 47.15 1262.41 1.63 1243.96 1.63 1243.96 7.71 1250.38 8.61 1250.99 9.57 1250.72 49.54 1257.27 49.54 1257.13 19.85"/>
  <polygon class="uuid-b5038119-d22e-4254-bf8b-e7316854cf26" points="1355.11 8.79 1362.22 7.36 1362.22 1.63 1340.36 1.63 1340.36 7.59 1347.87 8.8 1337.36 49.54 1343.67 49.54 1355.11 8.79"/>
  <polygon class="uuid-b5038119-d22e-4254-bf8b-e7316854cf26" points="1324.6 8.58 1332.12 7.64 1332.12 1.63 1303.93 1.63 1303.93 7.73 1310.08 8.5 1322.52 49.54 1336.23 49.54 1324.6 8.58"/>
  <path class="uuid-b5038119-d22e-4254-bf8b-e7316854cf26" d="M1384.14,39.42h8.71l1.07,9.54h6.42v-25.89h-6.41l-1.15,9.9h-8.63c0-8.49.01-16.57.19-24.52h14.82l2.9,13.99h6.84l-.09-20.8h-45.68v6.11l7.28.82c.13,8.73.13,17.55.13,26.08v4.45c0,3.45,0,6.95-.01,10.45h13.63c-.01-3.32-.02-6.68-.02-10.13Z"/>
  <polygon class="uuid-b5038119-d22e-4254-bf8b-e7316854cf26" points="1426.78 19.85 1444.53 49.54 1465.92 49.54 1466.17 8.86 1473.2 7.67 1473.2 1.63 1449.59 1.63 1449.59 7.72 1459.45 9 1459.65 47.15 1432.06 1.63 1413.61 1.63 1413.61 7.71 1420.03 8.61 1420.64 9.57 1420.37 49.54 1426.91 49.54 1426.78 19.85"/>
  <path class="uuid-b5038119-d22e-4254-bf8b-e7316854cf26" d="M1507.73,39.1v-4.45c0-8.65,0-17.58.13-26.2h9.16l3.13,14.99h7.02l-.53-21.8h-51.41l-.62,21.8h7.02l3.21-14.99h9.15c.06,8.7.06,17.59.06,26.2v4.45c0,3.45,0,6.95,0,10.45h13.7c0-3.51-.01-7-.01-10.45Z"/>
  <path class="uuid-b5038119-d22e-4254-bf8b-e7316854cf26" d="M1550.35,39.1v-4.45c0-8.97,0-17.47.2-26.08l7.29-.82V1.63h-28.5v6.11l7.28.82c.13,8.73.13,17.55.13,26.08v4.45c0,3.45,0,6.95-.01,10.45h13.63c-.01-3.5-.02-7-.02-10.45Z"/>
  <path class="uuid-b5038119-d22e-4254-bf8b-e7316854cf26" d="M1574.94,36.83c0-14.55,3.54-30.11,13.48-30.11,6.55,0,13.55,7.91,13.55,30.11,0,4.29-.31,8.67-1,12.72h13.9c.9-3.77,1.4-8,1.4-12.72,0-25.3-14.43-36.83-27.85-36.83-7.52,0-14.46,3.45-19.56,9.7-5.47,6.73-8.37,16.11-8.37,27.13,0,4.55.48,8.81,1.41,12.72h14.03c-.69-4.04-.99-8.42-.99-12.72Z"/>
  <polygon class="uuid-b5038119-d22e-4254-bf8b-e7316854cf26" points="1631.72 19.85 1649.47 49.54 1670.86 49.54 1671.1 8.86 1678.14 7.67 1678.14 1.63 1654.53 1.63 1654.53 7.72 1664.39 9 1664.58 47.15 1637 1.63 1618.55 1.63 1618.55 7.71 1624.96 8.61 1625.58 9.57 1625.31 49.54 1631.85 49.54 1631.72 19.85"/>
  <polygon class="uuid-b5038119-d22e-4254-bf8b-e7316854cf26" points="1337.36 49.54 1336.23 49.54 1336.82 51.64 1337.36 49.54"/>
  <path class="uuid-b5038119-d22e-4254-bf8b-e7316854cf26" d="M1213.83,67.03c7.05,0,10.9-7.77,12.55-17.48h-25.04c1.64,9.71,5.47,17.48,12.48,17.48Z"/>
  <path class="uuid-b5038119-d22e-4254-bf8b-e7316854cf26" d="M276.68,67.03c7.05,0,10.9-7.77,12.55-17.48h-25.04c1.64,9.71,5.47,17.48,12.48,17.48Z"/>
  <path class="uuid-b5038119-d22e-4254-bf8b-e7316854cf26" d="M534.09,67.03c7.05,0,10.9-7.77,12.55-17.48h-25.04c1.64,9.71,5.47,17.48,12.48,17.48Z"/>
  <path class="uuid-b5038119-d22e-4254-bf8b-e7316854cf26" d="M1588.42,67.03c7.05,0,10.9-7.77,12.55-17.48h-25.04c1.64,9.71,5.47,17.48,12.48,17.48Z"/>
  <path class="uuid-b5038119-d22e-4254-bf8b-e7316854cf26" d="M606.43,65.48h3.2c8.24,0,13.89-5.67,16.29-15.94h-19.67c.02,5.45.06,10.76.18,15.94Z"/>
  <path class="uuid-b5038119-d22e-4254-bf8b-e7316854cf26" d="M1074.21,65.48h3.2c8.24,0,13.89-5.67,16.29-15.94h-19.67c.02,5.45.06,10.76.18,15.94Z"/>
  <path class="uuid-b5038119-d22e-4254-bf8b-e7316854cf26" d="M921.06,65.3l3.26-15.75h-18.18c.02,5.13.06,10.46.18,15.75h14.74Z"/>
  <path class="uuid-b5038119-d22e-4254-bf8b-e7316854cf26" d="M182.73,65.3l3.26-15.75h-18.18c.02,5.13.06,10.46.18,15.75h14.74Z"/>
  <polygon class="uuid-b5038119-d22e-4254-bf8b-e7316854cf26" points="807.5 66.02 815.53 64.94 815.61 49.54 796.36 49.54 800.84 65.17 807.5 66.02"/>
  <path class="uuid-b5038119-d22e-4254-bf8b-e7316854cf26" d="M1670.86,49.54l-.14,22.84h-7.6l-13.65-22.84h-17.62l.07,15.29,9.78,1.18v6.01h-23.61v-5.97l7.11-1.09.1-15.42h-10.44c-3.93,16.54-15.53,24.2-26.45,24.2-7.58,0-14.54-3.4-19.58-9.57-3.24-3.97-5.57-8.92-6.93-14.63h-11.55c.02,5.22.06,10.46.18,15.64l7.29.82v6.02h-28.5v-6.02l7.28-.82c.08-5.14.11-10.4.12-15.64h-29c.01,5.19.04,10.42.12,15.62l8.19.82v6.04h-30.26v-6.04l8.18-.82c.04-5.14.05-10.39.06-15.62h-28.12l-.14,22.84h-7.6l-13.65-22.84h-17.62l.07,15.29,9.78,1.18v6.01h-23.61v-5.97l7.11-1.09.1-15.42h-36.22c.02,5.37.06,10.61.18,15.75h16.34l2.98-14.53h6.93l-.27,21.25h-47.2v-6.02l7.28-.82c.08-5.14.11-10.4.12-15.64h-26.85l-6.41,22.84h-7.81l-6.92-22.84h-26.25l-.14,22.84h-7.6l-13.65-22.84h-17.62l.07,15.29,9.78,1.18v6.01h-23.61v-5.97l7.11-1.09.1-15.42h-10.44c-3.93,16.54-15.53,24.2-26.45,24.2-7.58,0-14.54-3.4-19.58-9.57-3.24-3.97-5.57-8.92-6.93-14.63h-38.96c2.47,11.14,8.49,17.48,17.12,17.48,2.14,0,4.12-.41,6.19-1.29l3.46-15.79h7.12l.09,17.92-.67.45c-5.46,3.65-11.3,5.43-17.86,5.43-15,0-25.78-9.17-29.56-24.2h-26.64c-3.9,14.13-14.62,22.48-29.89,22.48h-24.71v-6.02l7.28-.82c.08-5.04.11-10.26.12-15.64h-17.27l-.14,22.84h-7.6l-13.65-22.84h-17.62l.07,15.29,9.78,1.18v6.01h-23.61v-5.97l7.11-1.09.1-15.42h-18.43l4.48,15.62,6.67.86v6h-27.66v-5.99l7.01-.95-4.06-14.86h-15.96l-3.8,14.78,7.12,1.04v5.98h-20.86v-5.95l6.88-1.14,4.23-15.39h-12l-.18,22.48h-45.94l.15-6.02,7.17-.82c.08-5.32.11-10.6.12-15.64h-18.69c0,5.22.02,10.46.06,15.64l7.34.82v6.02h-28.19v-6.02l7.06-.82c.1-4.53.11-9.07.11-13.47,0-.73,0-1.45,0-2.17h-8.67l-7.15,22.48h-5.91l-7.4-22.48h-8.82v15.4l8.02,1.09v5.99h-50.42v-5.99l7.01-.95-4.06-14.86h-15.96l-3.8,14.78,7.12,1.04v5.98h-20.86v-5.95l6.88-1.14,4.23-15.39h-38.58c.02,5.37.06,10.61.18,15.75h16.34l2.98-14.53h6.93l-.27,21.25h-47.2v-6.02l7.28-.82c.08-5.14.11-10.4.12-15.64h-18.82c.11.53.22,1.08.33,1.64l2.9,14.14,6.98.66v5.63l-1.02.34c-2.71.9-5.07,1.26-8.42,1.26-7.26,0-10.89-2.95-11.79-9.56l-2.73-13.9c-.01-.07-.02-.13-.04-.2h-10.97c.02,5.3.06,10.5.18,15.63l7.44.82v6.02h-28.5v-6.02l7.28-.82c.08-5.14.11-10.4.12-15.64h-11.31c-3.9,14.13-14.62,22.48-29.89,22.48h-24.71v-6.02l7.28-.82c.08-5.04.11-10.26.12-15.64h-32.08c-3.93,16.54-15.53,24.2-26.45,24.2-7.58,0-14.54-3.4-19.58-9.57-3.24-3.97-5.57-8.92-6.93-14.63h-22.17c.01,5.19.04,10.42.12,15.62l8.19.82v6.04h-30.26v-6.04l8.18-.82c.04-5.14.05-10.39.06-15.62h-66.8c.02,5.37.06,10.61.18,15.75h16.34l2.98-14.53h6.93l-.27,21.25h-47.2v-6.02l7.28-.82c.08-5.14.11-10.4.12-15.64h-18.69c0,5.22.02,10.46.06,15.64l7.34.82v6.02h-28.19v-6.02l7.06-.82c.1-4.53.11-9.07.11-13.47,0-.73,0-1.45,0-2.17h-8.67l-7.15,22.48h-5.91l-7.4-22.48h-8.82v15.4l8.02,1.09v5.99h-22.85v-5.99l8.1-1.09.08-15.4h-11.25c-3.93,16.54-15.53,24.2-26.45,24.2-7.58,0-14.54-3.4-19.58-9.57-3.24-3.97-5.57-8.92-6.93-14.63h-38.96c2.47,11.14,8.49,17.48,17.12,17.48,2.14,0,4.12-.41,6.19-1.29l3.46-15.79h7.12l.09,17.92-.67.45c-5.46,3.65-11.3,5.43-17.86,5.43-15,0-25.77-9.17-29.56-24.2h-4.23l-.17,22.48h-45.94l.14-6.02,7.17-.82c.08-5.32.11-10.6.12-15.64h-37.4c.02,5.37.06,10.61.18,15.75h16.34l2.98-14.53h6.93l-.27,21.25h-47.2v-6.02l7.28-.82c.08-5.14.11-10.4.12-15.64h-25.78l-5.37,22.84h-7.83l-5.99-22.84h-12.65l-5.79,22.84h-7.91l-5.58-22.84H0l10.7,40.49h1676.18l11.16-40.49h-27.19Z"/>
</svg>